<?xml version="1.0" standalone="no"?>
<!DOCTYPE svg PUBLIC "-//W3C//DTD SVG 20010904//EN"
 "http://www.w3.org/TR/2001/REC-SVG-20010904/DTD/svg10.dtd">
<svg version="1.0" xmlns="http://www.w3.org/2000/svg"
 width="578.000000pt" height="578.000000pt" viewBox="0 0 578.000000 578.000000"
 preserveAspectRatio="xMidYMid meet">

<g transform="translate(0.000000,578.000000) scale(0.100000,-0.100000)"
fill="#000000" stroke="none">
<path d="M2391 5589 c-297 -31 -602 -144 -831 -306 -52 -37 -156 -129 -232
-204 l-136 -135 43 86 c56 112 168 278 240 358 31 34 54 62 51 62 -15 0 -107
-52 -191 -108 -318 -210 -535 -517 -611 -864 -30 -138 -16 -343 30 -450 6 -13
-11 -26 -96 -67 -204 -99 -415 -255 -572 -422 -42 -45 -75 -83 -73 -85 2 -2
48 3 103 11 223 34 502 10 724 -61 107 -34 105 -32 81 -92 -30 -75 -68 -233
-82 -336 -17 -131 -7 -395 20 -530 104 -516 409 -970 848 -1265 93 -62 319
-177 403 -204 24 -8 45 -19 47 -23 1 -5 -54 -49 -124 -99 -367 -262 -355 -254
-399 -255 -65 0 -225 -45 -318 -88 -103 -49 -163 -89 -240 -161 -54 -52 -131
-149 -110 -140 5 2 37 19 71 36 73 39 201 83 237 83 l25 0 -24 -36 c-42 -62
-29 -104 30 -104 46 0 107 20 222 74 l101 48 80 -40 c101 -50 196 -69 278 -54
78 14 162 46 199 77 l30 25 -35 -8 c-74 -15 -202 -7 -272 17 -38 12 -68 26
-68 31 0 4 27 10 60 14 41 5 60 11 60 21 0 26 -52 75 -112 103 l-60 29 218
150 c121 83 245 167 277 188 l59 37 106 -22 c155 -31 385 -44 572 -32 85 5
157 8 159 6 2 -2 -28 -58 -66 -126 l-69 -123 -65 -7 c-232 -23 -474 -150 -605
-317 -24 -31 -44 -59 -44 -64 0 -4 36 11 80 33 68 34 231 90 262 90 5 0 -2
-14 -16 -31 -51 -61 -45 -111 14 -117 43 -4 114 19 224 75 l89 44 71 -35 c99
-50 185 -70 264 -62 70 7 159 39 215 78 l36 24 -114 -4 c-96 -4 -124 -1 -184
17 -38 12 -73 25 -76 31 -3 5 22 12 55 16 48 5 60 10 60 24 0 27 -59 80 -120
108 -30 14 -57 26 -59 28 -2 2 28 52 66 111 38 59 89 138 112 174 l42 66 67
13 c540 104 1007 460 1255 955 36 72 117 259 117 270 0 2 -33 -11 -74 -29 -73
-31 -74 -31 -102 -96 -69 -160 -226 -368 -376 -500 -112 -97 -265 -197 -425
-277 -163 -81 -196 -86 -308 -48 -260 89 -535 295 -747 560 -36 46 -54 62 -56
51 -6 -27 47 -196 78 -253 15 -29 23 -50 17 -46 -26 15 -204 158 -239 191 -21
20 -40 33 -44 30 -12 -13 68 -117 149 -194 100 -96 203 -166 351 -238 134 -65
274 -115 413 -147 l102 -23 -117 -28 c-419 -99 -813 -73 -1217 79 -479 181
-850 501 -1051 908 -124 250 -174 463 -175 740 0 309 56 533 176 701 25 35 55
70 66 78 20 13 19 15 -32 62 -56 52 -109 127 -109 154 0 29 98 150 214 265
178 177 390 308 578 357 46 12 94 29 108 39 100 67 304 140 465 164 134 21
422 16 558 -9 316 -59 616 -210 867 -435 66 -59 150 -154 120 -136 -8 5 -40
27 -70 50 -206 157 -502 309 -743 381 -194 58 -283 69 -554 69 -172 0 -256 -4
-263 -11 -22 -22 276 -260 466 -374 209 -124 453 -219 676 -265 151 -30 384
-55 517 -55 55 0 106 -3 115 -6 18 -7 22 -49 6 -59 -22 -14 -376 -7 -490 10
-308 44 -611 140 -1003 319 -50 22 -56 24 -48 8 15 -28 95 -98 158 -139 71
-45 254 -132 345 -163 37 -13 66 -25 64 -27 -6 -7 -236 47 -311 72 -38 13 -79
26 -90 30 -37 12 69 -77 125 -105 192 -97 573 -154 871 -131 168 14 315 41
430 80 108 37 139 51 139 66 0 22 -95 200 -149 280 -117 173 -285 349 -447
468 -66 49 -275 177 -289 177 -2 0 20 -32 49 -71 30 -39 61 -89 69 -110 l16
-40 -37 31 c-164 138 -343 240 -497 282 -66 18 -106 22 -230 22 -134 -1 -159
-4 -238 -28 -49 -14 -103 -33 -120 -42 l-32 -15 29 24 c39 33 143 90 223 122
231 93 549 114 828 56 50 -11 92 -17 94 -15 8 7 -205 102 -299 133 -368 121
-778 113 -1130 -24 -156 -60 -323 -148 -495 -260 -30 -20 -30 -20 -15 0 48 64
260 291 331 356 268 241 561 403 772 426 32 3 60 9 62 13 11 18 -275 24 -424
9z m-793 -711 c-91 -103 -176 -215 -258 -338 -57 -87 -120 -200 -120 -216 0
-3 43 35 95 84 165 156 334 276 522 371 85 42 246 111 260 111 4 0 -59 -35
-142 -78 -82 -43 -190 -104 -239 -137 -284 -187 -527 -441 -649 -679 l-31 -61
-8 45 c-17 88 13 253 73 403 18 43 33 76 35 74 2 -1 -6 -32 -17 -67 -26 -82
-48 -201 -48 -260 0 -44 0 -43 39 54 73 184 169 351 288 501 63 79 251 275
264 275 5 0 -24 -37 -64 -82z m-475 -344 c-61 -105 -106 -232 -138 -389 -13
-60 -13 -60 -14 -17 -3 106 64 309 138 415 42 61 51 55 14 -9z m1589 -70 c249
-48 466 -108 475 -131 14 -37 -16 -36 -169 5 -158 43 -384 92 -423 92 -27 0
-49 24 -41 45 7 19 3 20 158 -11z m-1778 -760 c9 -3 16 -11 16 -18 0 -8 -49
-16 -152 -25 -84 -7 -169 -15 -188 -17 -69 -10 -6 13 95 35 133 27 203 35 229
25z"/>
<path d="M5008 4348 c-4 -87 -10 -115 -36 -178 -164 -387 -726 -640 -1372
-617 -221 8 -396 36 -642 103 l-68 18 -27 -26 c-43 -41 -150 -85 -236 -98 -82
-12 -194 -3 -309 24 -34 8 -58 9 -58 4 0 -21 76 -122 143 -191 86 -87 145
-129 346 -241 385 -214 794 -347 1271 -412 180 -24 612 -25 768 0 63 9 116 15
118 13 6 -6 -107 -32 -236 -55 -74 -13 -156 -16 -375 -16 -291 0 -380 8 -625
55 -666 128 -1361 489 -1514 787 -20 38 -56 45 -56 9 0 -34 43 -182 79 -272
141 -352 484 -687 937 -913 357 -178 659 -242 1083 -229 207 6 347 29 519 86
222 73 408 182 558 326 94 91 94 93 2 33 -141 -93 -328 -170 -508 -208 -162
-35 -479 -40 -653 -10 -151 25 -336 74 -473 125 -109 41 -328 144 -321 152 3
2 70 -14 150 -36 342 -96 496 -121 779 -128 247 -6 350 3 536 48 432 105 757
341 921 667 32 63 30 79 -5 41 -34 -38 -225 -159 -329 -209 -304 -147 -642
-209 -1062 -196 -286 9 -465 33 -736 98 -132 31 -166 48 -58 28 256 -46 709
-64 928 -36 233 30 415 82 588 169 142 71 237 137 343 241 103 101 176 200
226 308 58 124 56 130 -19 50 -243 -261 -724 -480 -1176 -533 -142 -16 -160
-10 -69 25 208 80 432 208 568 325 145 125 264 312 293 459 16 83 7 203 -21
272 -25 64 -96 173 -138 213 l-29 28 -5 -103z m-820 -874 c-10 -9 -145 -41
-231 -55 -81 -12 -245 -7 -302 10 l-30 8 25 6 c14 3 113 9 220 12 107 3 218
10 245 14 67 11 79 12 73 5z m-918 -32 c45 -25 74 -81 66 -127 -15 -76 -107
-145 -195 -145 -42 0 -56 5 -85 31 -132 115 55 326 214 241z m-620 -13 l75 -1
-60 -20 c-40 -13 -78 -18 -112 -15 -60 4 -68 9 -59 33 5 13 14 15 44 10 20 -3
71 -6 112 -7z m-122 -392 c300 -274 742 -534 1172 -688 116 -42 109 -49 -18
-19 -397 95 -818 321 -1139 609 -98 88 -122 119 -108 141 12 20 36 9 93 -43z"/>
<path d="M1485 4091 c-207 -96 -138 -401 92 -401 111 0 213 100 213 209 0 26
-4 26 -41 -1 -59 -44 -143 -22 -176 47 -22 47 -5 108 38 134 24 15 27 20 14
25 -31 12 -100 5 -140 -13z"/>
<path d="M3908 1883 c-51 -2 -88 -8 -88 -14 0 -6 21 -19 46 -31 52 -22 104
-19 163 10 50 24 52 42 4 40 -21 -1 -77 -4 -125 -5z"/>
<path d="M4130 1704 c-36 -14 -109 -37 -162 -51 -54 -15 -98 -30 -98 -34 0
-12 70 -29 121 -29 75 0 142 26 198 76 28 25 51 50 51 55 0 16 -42 9 -110 -17z"/>
</g>
</svg>
